<?xml version="1.0" encoding="UTF-8" standalone="no"?>
<!-- Generator: Adobe Illustrator 19.0.0, SVG Export Plug-In . SVG Version: 6.00 Build 0)  -->

<svg
   xmlns:dc="http://purl.org/dc/elements/1.1/"
   xmlns:cc="http://creativecommons.org/ns#"
   xmlns:rdf="http://www.w3.org/1999/02/22-rdf-syntax-ns#"
   xmlns:svg="http://www.w3.org/2000/svg"
   xmlns="http://www.w3.org/2000/svg"
   xmlns:sodipodi="http://sodipodi.sourceforge.net/DTD/sodipodi-0.dtd"
   xmlns:inkscape="http://www.inkscape.org/namespaces/inkscape"
   version="1.1"
   id="Capa_1"
   x="0px"
   y="0px"
   viewBox="0 0 489.8 489.8"
   style="enable-background:new 0 0 489.8 489.8;"
   xml:space="preserve"
   sodipodi:docname="play.svg"
   inkscape:version="0.92.2 (5c3e80d, 2017-08-06)"><metadata
     id="metadata77"><rdf:RDF><cc:Work
         rdf:about=""><dc:format>image/svg+xml</dc:format><dc:type
           rdf:resource="http://purl.org/dc/dcmitype/StillImage" /></cc:Work></rdf:RDF></metadata><defs
     id="defs75" /><sodipodi:namedview
     pagecolor="#ffffff"
     bordercolor="#666666"
     borderopacity="1"
     objecttolerance="10"
     gridtolerance="10"
     guidetolerance="10"
     inkscape:pageopacity="0"
     inkscape:pageshadow="2"
     inkscape:window-width="1920"
     inkscape:window-height="1017"
     id="namedview73"
     showgrid="false"
     inkscape:zoom="0.68140957"
     inkscape:cx="376.20154"
     inkscape:cy="298.39322"
     inkscape:window-x="-8"
     inkscape:window-y="-8"
     inkscape:window-maximized="1"
     inkscape:current-layer="g6" /><g
     id="g40"><g
       id="g8"><g
         id="g6"
         style="fill:#e00000;fill-opacity:1"><path
           d="M244.9,0C109.8,0,0,109.8,0,244.9s109.9,244.9,244.9,244.9c135.1,0,244.9-109.9,244.9-244.9C489.8,109.8,380,0,244.9,0z      M244.9,455.5c-116.1,0-210.6-94.5-210.6-210.6S128.8,34.3,244.9,34.3s210.6,94.5,210.6,210.6S361,455.5,244.9,455.5z"
           id="path2"
           style="fill:#e00000;fill-opacity:1" /><path
           d="M375.9,230.5L200.1,117.7c-5.3-3.4-12-3.6-17.5-0.6s-8.9,8.8-8.9,15v225.5c0,6.3,3.4,12,8.9,15c2.6,1.4,5.4,2.1,8.2,2.1     c3.2,0,6.4-0.9,9.3-2.7l175.8-112.7c4.9-3.2,7.9-8.6,7.9-14.4C383.7,239.1,380.8,233.6,375.9,230.5z M207.9,326.3V163.5     l126.9,81.4L207.9,326.3z"
           id="path4"
           style="fill:#e00000;fill-opacity:1" /></g></g><g
       id="g10" /><g
       id="g12" /><g
       id="g14" /><g
       id="g16" /><g
       id="g18" /><g
       id="g20" /><g
       id="g22" /><g
       id="g24" /><g
       id="g26" /><g
       id="g28" /><g
       id="g30" /><g
       id="g32" /><g
       id="g34" /><g
       id="g36" /><g
       id="g38" /></g><g
     id="g42" /><g
     id="g44" /><g
     id="g46" /><g
     id="g48" /><g
     id="g50" /><g
     id="g52" /><g
     id="g54" /><g
     id="g56" /><g
     id="g58" /><g
     id="g60" /><g
     id="g62" /><g
     id="g64" /><g
     id="g66" /><g
     id="g68" /><g
     id="g70" /></svg>